<svg xmlns="http://www.w3.org/2000/svg" viewBox="0 0 1116.63 362">
  <title>Asset 90</title>
  <g id="Layer_2" data-name="Layer 2">
    <g id="Layer_1-2" data-name="Layer 1">
      <g>
        <rect width="1116.63" height="294.74" style="fill: #43c9ed;opacity: 0"/>
        <g>
          <path d="M319.52,160.81V98.06H347v54.07c0,13,6.14,19.71,16.63,19.71s17.18-6.69,17.18-19.71V98.06h27.49V195H380.82V181.25c-6.33,8.13-14.46,15.55-28.39,15.55C331.64,196.8,319.52,183.06,319.52,160.81Z" style="fill: #43c9ed"/>
          <path d="M431.13,98.06h27.48v19.53c5.61-13.38,14.65-22.06,30.93-21.33V125h-1.45c-18.27,0-29.48,11-29.48,34.18V195H431.13Z" style="fill: #43c9ed"/>
          <path d="M498.4,147.07v-.36c0-27.67,19.71-50.45,47.92-50.45,32.37,0,47.19,25.13,47.19,52.62,0,2.17-.18,4.7-.36,7.23H525.7c2.71,12.48,11.39,19,23.69,19,9.22,0,15.91-2.89,23.51-9.95l15.73,13.93c-9,11.21-22.06,18.08-39.6,18.08C519.91,197.16,498.4,176.73,498.4,147.07Zm68.35-8.14c-1.63-12.29-8.86-20.61-20.43-20.61-11.4,0-18.81,8.14-21,20.61Z" style="fill: #43c9ed"/>
          <path d="M606.22,147.07v-.36c0-27.67,21.16-50.45,50.82-50.45,18.26,0,29.65,6.14,38.7,16.27l-16.82,18.08c-6.15-6.51-12.3-10.66-22.06-10.66-13.75,0-23.51,12.11-23.51,26.4v.36c0,14.83,9.58,26.76,24.59,26.76,9.22,0,15.55-4,22.24-10.31l16.1,16.28c-9.41,10.31-20.25,17.72-39.6,17.72C627.56,197.16,606.22,174.74,606.22,147.07Z" style="fill: #43c9ed"/>
          <path d="M710.83,63h27.49v70.35l32.19-35.27h32.91l-36.89,38.16L804.69,195H773.22l-25.31-39.6-9.59,10.12V195H710.83Z" style="fill: #43c9ed"/>
          <path d="M806,147.07v-.36c0-27.85,22.42-50.45,52.62-50.45,30,0,52.26,22.24,52.26,50.09v.36c0,27.85-22.42,50.45-52.62,50.45C828.23,197.16,806,174.92,806,147.07Zm77.75,0v-.36c0-14.29-10.3-26.76-25.49-26.76-15.73,0-25.14,12.11-25.14,26.4v.36c0,14.28,10.31,26.76,25.5,26.76C874.34,173.47,883.74,161.36,883.74,147.07Z" style="fill: #43c9ed"/>
          <path d="M928.46,98.06H956v13.75c6.33-8.14,14.47-15.55,28.39-15.55,20.8,0,32.91,13.74,32.91,36V195H989.76V140.92c0-13-6.14-19.71-16.63-19.71S956,127.9,956,140.92V195H928.46Z" style="fill: #43c9ed"/>
        </g>
        <path d="M264.85,113.29h0a30.87,30.87,0,0,0-12.08-20.82,28.93,28.93,0,0,0-3.14-2.08l-9.13-5.27-12.87-7.44L198.07,60.62l-.76-.43a30.87,30.87,0,0,0-14.43-4.13,30.31,30.31,0,0,0-7.82.75,30.63,30.63,0,0,0-8.66,3.38l-5.77,3.33-13.36,7.72L137,77.18l-7.27,4.2h0l-9.18,5.3h0l-6.41,3.71a30.76,30.76,0,0,0-7,5.55h0a31,31,0,0,0-6.44,10.29,29.46,29.46,0,0,0-1.1,3.57,30.58,30.58,0,0,0-.89,7.36v60.42a30.54,30.54,0,0,0,.72,6.63,28.78,28.78,0,0,0,1,3.52,30.74,30.74,0,0,0,6.52,10.87,31.21,31.21,0,0,0,7.22,5.75l5.53,3.2,10.31,5.95,7.28,4.2,9.17,5.29h0l13.94,8,6.07,3.51a30.63,30.63,0,0,0,8.39,3.33,31,31,0,0,0,8.47.78,30.7,30.7,0,0,0,14.05-4.11l.84-.48,9.39-5.42,2.81-1.62L227.75,217,241,209.33l8.61-5a29.85,29.85,0,0,0,3.6-2.43,30.79,30.79,0,0,0,9.61-12.78,30.13,30.13,0,0,0,2.1-8.58h0a26.61,26.61,0,0,0,.15-3V117.16A31.05,31.05,0,0,0,264.85,113.29ZM216.14,130a121.5,121.5,0,0,0-10.2,11.31,118.69,118.69,0,0,0-8.5,12.12,115.55,115.55,0,0,0-6.14,11.26c-.57,1.18-1.12,2.37-1.64,3.57a117.64,117.64,0,0,0-5.07,13.71q-1.6,5.28-2.73,10.75a121,121,0,0,0-10-29.24,120.08,120.08,0,0,0-8-13.85,123,123,0,0,0-11.37-14.54c-1.68-1.86-3.44-3.66-5.24-5.41h0q-2.16-2.11-4.42-4.09c-.82-.73-1.65-1.44-2.49-2.14q3.19,1.16,6.47,2.12h0a120.55,120.55,0,0,0,18.6,4q2.86.39,5.78.65c3.51.3,7.08.45,10.67.45,1.32,0,2.62,0,3.93-.06,2.65-.08,5.27-.25,7.88-.5a121.59,121.59,0,0,0,29.72-6.66Q219.64,126.55,216.14,130Z" style="fill: #43c9ed"/>
        <text transform="translate(429.6 359)" style="font-size: 12px;fill: #43c9ed;font-family: MyriadPro-Regular, Myriad Pro"> </text>
        <g>
          <path d="M501.24,219,496,220.29l-1.38-5.43,8.66-2.59h4.53v30.39h-6.55Z" style="fill: #43c9ed"/>
          <path d="M521.58,219l-5.26,1.29-1.38-5.43,8.67-2.59h4.52v30.39h-6.55Z" style="fill: #43c9ed"/>
          <path d="M536.59,224.49v-6.38H535v-3.27h1.6V211.4h3.82v3.44h3.17v3.27h-3.17v5.75c0,.88.38,1.31,1.24,1.31a3.89,3.89,0,0,0,1.88-.48v3.07a5.68,5.68,0,0,1-3,.77C538.18,228.53,536.59,227.61,536.59,224.49Z" style="fill: #43c9ed"/>
          <path d="M547.65,210h3.82v6.79a4.77,4.77,0,0,1,3.95-2.16c2.89,0,4.57,1.91,4.57,5v8.72h-3.82v-7.52c0-1.81-.85-2.73-2.31-2.73s-2.39.92-2.39,2.73v7.52h-3.82Z" style="fill: #43c9ed"/>
          <path d="M580.1,226.15h13.28v6.3H580.1Z" style="fill: #43c9ed"/>
          <path d="M620.45,219l-5.26,1.29-1.38-5.43,8.66-2.59H627v30.39h-6.55Z" style="fill: #43c9ed"/>
          <path d="M635.23,237.4l10-8.23c3.75-3.1,5.21-4.74,5.21-7.24a3.7,3.7,0,0,0-4-3.92c-2.33,0-3.92,1.29-6.16,4.05l-4.66-3.75c3-4.05,5.86-6.25,11.25-6.25,6.25,0,10.39,3.66,10.39,9.31v.09c0,5-2.59,7.54-7.93,11.68l-4.91,3.79h13.14v5.73H635.23Z" style="fill: #43c9ed"/>
          <path d="M664.47,224.49v-6.38h-1.61v-3.27h1.61V211.4h3.82v3.44h3.17v3.27h-3.17v5.75c0,.88.38,1.31,1.23,1.31a3.93,3.93,0,0,0,1.89-.48v3.07a5.74,5.74,0,0,1-3,.77C666.05,228.53,664.47,227.61,664.47,224.49Z" style="fill: #43c9ed"/>
          <path d="M675.53,210h3.82v6.79a4.76,4.76,0,0,1,3.94-2.16c2.89,0,4.58,1.91,4.58,5v8.72h-3.82v-7.52c0-1.81-.86-2.73-2.31-2.73s-2.39.92-2.39,2.73v7.52h-3.82Z" style="fill: #43c9ed"/>
          <path d="M706.42,238.57l4.19-4.66c1.72,1.9,3.4,3,5.51,3,2.5,0,4.06-1.51,4.06-5V212.49H727v19.74c0,3.58-1,6.25-2.85,8.06a10.74,10.74,0,0,1-7.84,2.8A12.34,12.34,0,0,1,706.42,238.57Z" style="fill: #43c9ed"/>
          <path d="M733.84,236v-.09c0-5,3.84-7.37,9.31-7.37a16.44,16.44,0,0,1,5.65,1v-.39c0-2.72-1.68-4.23-5-4.23a17.11,17.11,0,0,0-6.38,1.25l-1.64-5a20.45,20.45,0,0,1,9-1.85c3.58,0,6.16.95,7.8,2.59s2.5,4.26,2.5,7.37v13.4h-6.33v-2.5a8.9,8.9,0,0,1-7,2.93C737.42,243.09,733.84,240.59,733.84,236Zm15-1.51v-1.17a10.25,10.25,0,0,0-4.18-.86c-2.8,0-4.52,1.12-4.52,3.19v.09c0,1.76,1.46,2.8,3.57,2.8C746.82,238.57,748.88,236.89,748.88,234.52Z" style="fill: #43c9ed"/>
          <path d="M762.9,219.56h6.55v3.28c1.51-1.94,3.45-3.71,6.77-3.71,4.95,0,7.84,3.27,7.84,8.58v14.95h-6.55V229.77c0-3.1-1.47-4.69-4-4.69s-4.09,1.59-4.09,4.69v12.89H762.9Z" style="fill: #43c9ed"/>
          <path d="M791.74,234.52v-15h6.55v12.89c0,3.1,1.46,4.7,4,4.7s4.1-1.6,4.1-4.7V219.56h6.55v23.1h-6.55v-3.27c-1.51,1.94-3.45,3.7-6.77,3.7C794.62,243.09,791.74,239.82,791.74,234.52Z" style="fill: #43c9ed"/>
          <path d="M819.54,236v-.09c0-5,3.84-7.37,9.31-7.37a16.44,16.44,0,0,1,5.65,1v-.39c0-2.72-1.68-4.23-5-4.23a17.11,17.11,0,0,0-6.38,1.25l-1.64-5a20.45,20.45,0,0,1,9-1.85c3.58,0,6.16.95,7.8,2.59s2.5,4.26,2.5,7.37v13.4h-6.34v-2.5a8.86,8.86,0,0,1-7,2.93C823.12,243.09,819.54,240.59,819.54,236Zm15-1.51v-1.17a10.25,10.25,0,0,0-4.18-.86c-2.8,0-4.52,1.12-4.52,3.19v.09c0,1.76,1.46,2.8,3.57,2.8C832.51,238.57,834.58,236.89,834.58,234.52Z" style="fill: #43c9ed"/>
          <path d="M848.59,219.56h6.56v4.65c1.33-3.19,3.49-5.25,7.37-5.08V226h-.35c-4.35,0-7,2.63-7,8.15v8.53h-6.56Z" style="fill: #43c9ed"/>
          <path d="M868.47,248.09l2.2-4.74a5.93,5.93,0,0,0,2.8.91,2.19,2.19,0,0,0,2.28-1.51l-9-23.19h6.94l5.26,15.73,5-15.73h6.81l-8.88,23.66c-1.76,4.7-3.66,6.47-7.58,6.47A10.78,10.78,0,0,1,868.47,248.09Z" style="fill: #43c9ed"/>
          <path d="M911.06,237.4l10-8.23c3.75-3.1,5.22-4.74,5.22-7.24s-1.68-3.92-4.06-3.92-3.92,1.29-6.16,4.05l-4.65-3.75c3-4.05,5.86-6.25,11.25-6.25,6.25,0,10.38,3.66,10.38,9.31v.09c0,5-2.58,7.54-7.93,11.68l-4.91,3.79h13.15v5.73H911.06Z" style="fill: #43c9ed"/>
          <path d="M940.29,227.66v-.08c0-8.75,5.43-15.61,13.44-15.61s13.37,6.77,13.37,15.52v.09c0,8.75-5.39,15.6-13.45,15.6S940.29,236.41,940.29,227.66Zm20,0v-.08c0-5.48-2.68-9.62-6.64-9.62s-6.55,4-6.55,9.53v.09c0,5.51,2.62,9.61,6.63,9.61S960.29,233.14,960.29,227.66Z" style="fill: #43c9ed"/>
          <path d="M979,219l-5.26,1.29-1.38-5.43,8.67-2.59h4.52v30.39H979Z" style="fill: #43c9ed"/>
          <path d="M994.82,239.6l3.49-5a9.75,9.75,0,0,0,6.59,2.59c3.71,0,5.69-2.81,6.13-6.86a9.21,9.21,0,0,1-6.13,2.07c-6.55,0-10.77-3.62-10.77-9.74v-.09c0-6.07,4.7-10.56,11.51-10.56,4.05,0,6.42,1,8.7,3.28s3.58,5.43,3.58,11.38v.08c0,9.79-4.61,16.47-13.19,16.47A14.52,14.52,0,0,1,994.82,239.6Zm16.33-17.24v-.09c0-2.67-2-4.61-5.3-4.61s-5.13,1.9-5.13,4.57v.09c0,2.67,2,4.52,5.26,4.52S1011.15,225,1011.15,222.36Z" style="fill: #43c9ed"/>
        </g>
      </g>
    </g>
  </g>
</svg>
